<svg width="12" height="12" viewBox="0 0 12 12" fill="none" xmlns="http://www.w3.org/2000/svg">
<g id="bx-copyright.svg">
<path id="Vector" d="M6 11C8.7105 11 11 8.7105 11 6C11 3.2895 8.7105 1 6 1C3.2895 1 1 3.2895 1 6C1 8.7105 3.2895 11 6 11ZM6 2C8.1685 2 10 3.8315 10 6C10 8.1685 8.1685 10 6 10C3.8315 10 2 8.1685 2 6C2 3.8315 3.8315 2 6 2Z" fill="#8C8C8C"/>
<path id="Vector_2" d="M6 8.5C6.4505 8.5 7.2905 8.416 7.8535 7.854L7.1465 7.146C6.925 7.3675 6.496 7.5 6 7.5C5.187 7.5 4.5 6.813 4.5 6C4.5 5.187 5.187 4.5 6 4.5C6.4965 4.5 6.9255 4.6325 7.1465 4.8535L7.8535 4.1465C7.291 3.584 6.4505 3.5 6 3.5C4.6215 3.5 3.5 4.6215 3.5 6C3.5 7.3785 4.6215 8.5 6 8.5Z" fill="#8C8C8C"/>
</g>
</svg>
