<svg width="20" height="20" viewBox="0 0 20 20" fill="none" xmlns="http://www.w3.org/2000/svg">
<g id="bx-moon.svg">
<path id="Vector" d="M17.2849 10.8708C16.7202 11.0208 16.1384 11.0967 15.5541 11.0966C13.7749 11.0966 12.1041 10.405 10.8491 9.14997C10.0249 8.32109 9.43246 7.29069 9.13067 6.16146C8.82888 5.03224 8.82833 3.84364 9.12907 2.71414C9.16663 2.57291 9.16639 2.4243 9.12838 2.2832C9.09036 2.14209 9.01592 2.01347 8.9125 1.91022C8.80909 1.80698 8.68034 1.73274 8.53918 1.69496C8.39801 1.65718 8.2494 1.65718 8.10823 1.69497C6.6942 2.07179 5.40412 2.81382 4.3674 3.84664C1.11907 7.09497 1.11907 12.3825 4.3674 15.6325C5.13951 16.4089 6.05793 17.0245 7.06952 17.4436C8.0811 17.8627 9.16577 18.077 10.2607 18.0741C11.3554 18.0772 12.4398 17.8631 13.4511 17.4441C14.4625 17.0251 15.3806 16.4096 16.1524 15.6333C17.186 14.5964 17.9284 13.3056 18.3049 11.8908C18.3423 11.7496 18.342 11.6011 18.304 11.4601C18.266 11.3191 18.1917 11.1906 18.0884 11.0873C17.9851 10.984 17.8566 10.9097 17.7156 10.8717C17.5746 10.8337 17.4261 10.8334 17.2849 10.8708ZM14.9749 14.455C14.3574 15.0759 13.6228 15.5682 12.8138 15.9033C12.0048 16.2385 11.1373 16.4098 10.2616 16.4075C9.38556 16.4096 8.51781 16.2381 7.70851 15.9029C6.8992 15.5676 6.16439 15.0752 5.54657 14.4541C2.94824 11.855 2.94824 7.62497 5.54657 5.0258C6.04866 4.52428 6.62831 4.10698 7.26323 3.78997C7.1703 4.98919 7.33736 6.19433 7.75301 7.32304C8.16865 8.45176 8.82308 9.47743 9.67157 10.33C10.5222 11.1811 11.5476 11.8374 12.6768 12.2533C13.806 12.6693 15.012 12.835 16.2116 12.7391C15.8928 13.373 15.4754 13.9521 14.9749 14.455Z" fill="#2E2E2E"/>
</g>
</svg>
