<svg width="16" height="16" viewBox="0 0 16 16" fill="none" xmlns="http://www.w3.org/2000/svg">
<path d="M3.33333 14.6667H12.6667C13.402 14.6667 14 14.0687 14 13.3334V6.00004C14 5.82323 13.9298 5.65366 13.8047 5.52864C13.6797 5.40361 13.5101 5.33337 13.3333 5.33337H11.3333V4.66671C11.3333 2.82871 9.838 1.33337 8 1.33337C6.162 1.33337 4.66667 2.82871 4.66667 4.66671V5.33337H2.66667C2.48986 5.33337 2.32029 5.40361 2.19526 5.52864C2.07024 5.65366 2 5.82323 2 6.00004V13.3334C2 14.0687 2.598 14.6667 3.33333 14.6667ZM6 4.66671C6 3.56404 6.89733 2.66671 8 2.66671C9.10267 2.66671 10 3.56404 10 4.66671V5.33337H6V4.66671ZM3.33333 6.66671H4.66667V8.00004H6V6.66671H10V8.00004H11.3333V6.66671H12.6667L12.668 13.3334H3.33333V6.66671Z" fill="white"/>
</svg>
