<svg width="20" height="20" viewBox="0 0 20 20" fill="none" xmlns="http://www.w3.org/2000/svg">
<g id="bxl-twitter.svg">
<path id="Vector" d="M16.3607 6.66412C16.3715 6.80995 16.3715 6.95496 16.3715 7.09996C16.3715 11.5375 12.994 16.6508 6.8215 16.6508C4.91984 16.6508 3.15317 16.1 1.6665 15.1433C1.9365 15.1741 2.1965 15.185 2.47734 15.185C3.98816 15.1886 5.45621 14.6834 6.64484 13.7508C5.94436 13.7381 5.26532 13.507 4.70254 13.0897C4.13975 12.6725 3.72132 12.0899 3.50567 11.4233C3.71317 11.4541 3.9215 11.475 4.13984 11.475C4.44067 11.475 4.74317 11.4333 5.024 11.3608C4.2638 11.2073 3.58023 10.7952 3.08952 10.1947C2.59881 9.59414 2.33125 8.84216 2.33234 8.06662V8.02495C2.77984 8.27412 3.299 8.42995 3.849 8.45079C3.38824 8.14461 3.01044 7.72914 2.74929 7.24145C2.48814 6.75375 2.35176 6.209 2.35234 5.65579C2.35234 5.03245 2.51817 4.46079 2.809 3.96245C3.65245 4.99997 4.70442 5.84876 5.89678 6.45384C7.08914 7.05892 8.3953 7.4068 9.73067 7.47496C9.679 7.22495 9.64734 6.96579 9.64734 6.70579C9.64712 6.26492 9.73379 5.82834 9.9024 5.42099C10.071 5.01364 10.3183 4.64352 10.63 4.33178C10.9417 4.02004 11.3119 3.7728 11.7192 3.60419C12.1266 3.43558 12.5631 3.3489 13.004 3.34912C13.9707 3.34912 14.8432 3.75412 15.4565 4.40912C16.208 4.2638 16.9286 3.98947 17.5865 3.59829C17.336 4.37397 16.8113 5.03171 16.1107 5.44829C16.7772 5.37227 17.4285 5.197 18.0432 4.92829C17.5841 5.59754 17.0153 6.18441 16.3607 6.66412Z" fill="#595959"/>
</g>
</svg>
