<svg width="20" height="20" viewBox="0 0 20 20" fill="none" xmlns="http://www.w3.org/2000/svg">
<g id="bxl-instagram.svg">
<path id="Vector" d="M9.99933 6.14746C8.97736 6.14746 7.99725 6.55344 7.27461 7.27608C6.55197 7.99872 6.146 8.97883 6.146 10.0008C6.146 11.0228 6.55197 12.0029 7.27461 12.7255C7.99725 13.4482 8.97736 13.8541 9.99933 13.8541C11.0213 13.8541 12.0014 13.4482 12.724 12.7255C13.4467 12.0029 13.8527 11.0228 13.8527 10.0008C13.8527 8.97883 13.4467 7.99872 12.724 7.27608C12.0014 6.55344 11.0213 6.14746 9.99933 6.14746ZM9.99933 12.5033C9.3354 12.5033 8.69867 12.2396 8.22921 11.7701C7.75974 11.3006 7.496 10.6639 7.496 9.99996C7.496 9.33604 7.75974 8.6993 8.22921 8.22984C8.69867 7.76037 9.3354 7.49663 9.99933 7.49663C10.6633 7.49663 11.3 7.76037 11.7695 8.22984C12.2389 8.6993 12.5027 9.33604 12.5027 9.99996C12.5027 10.6639 12.2389 11.3006 11.7695 11.7701C11.3 12.2396 10.6633 12.5033 9.99933 12.5033Z" fill="#595959"/>
<path id="Vector_2" d="M14.0048 6.90409C14.5009 6.90409 14.9031 6.50189 14.9031 6.00575C14.9031 5.50962 14.5009 5.10742 14.0048 5.10742C13.5086 5.10742 13.1064 5.50962 13.1064 6.00575C13.1064 6.50189 13.5086 6.90409 14.0048 6.90409Z" fill="#595959"/>
<path id="Vector_3" d="M17.1106 5.09273C16.9177 4.59455 16.6229 4.14213 16.2451 3.76444C15.8672 3.38676 15.4147 3.09212 14.9165 2.89939C14.3334 2.68053 13.7174 2.56218 13.0948 2.54939C12.2923 2.51439 12.0381 2.50439 10.0031 2.50439C7.96813 2.50439 7.7073 2.50439 6.91146 2.54939C6.28929 2.56153 5.67376 2.6799 5.09146 2.89939C4.59308 3.0919 4.14044 3.38645 3.76258 3.76417C3.38472 4.14188 3.08999 4.59441 2.8973 5.09273C2.67839 5.67574 2.56031 6.29176 2.54813 6.91439C2.5123 7.71606 2.50146 7.97023 2.50146 10.0061C2.50146 12.0411 2.50146 12.3002 2.54813 13.0977C2.56063 13.7211 2.67813 14.3361 2.8973 14.9202C3.09053 15.4184 3.38554 15.8707 3.76349 16.2484C4.14144 16.626 4.59402 16.9207 5.0923 17.1136C5.67349 17.3412 6.28927 17.468 6.91313 17.4886C7.71563 17.5236 7.9698 17.5344 10.0048 17.5344C12.0398 17.5344 12.3006 17.5344 13.0965 17.4886C13.719 17.4759 14.335 17.3578 14.9181 17.1394C15.4163 16.9462 15.8687 16.6513 16.2464 16.2735C16.6242 15.8958 16.9191 15.4434 17.1123 14.9452C17.3315 14.3619 17.449 13.7469 17.4615 13.1236C17.4973 12.3219 17.5081 12.0677 17.5081 10.0319C17.5081 7.99606 17.5081 7.73773 17.4615 6.94023C17.4518 6.30879 17.3331 5.68377 17.1106 5.09273ZM16.0956 13.0361C16.0903 13.5163 16.0026 13.9921 15.8365 14.4427C15.7113 14.7668 15.5197 15.0611 15.274 15.3066C15.0283 15.5522 14.7339 15.7436 14.4098 15.8686C13.9642 16.0339 13.4934 16.1216 13.0181 16.1277C12.2265 16.1644 12.0031 16.1736 9.97313 16.1736C7.94147 16.1736 7.73396 16.1736 6.9273 16.1277C6.45224 16.1219 5.98174 16.0342 5.53646 15.8686C5.2112 15.7444 4.91563 15.5533 4.66887 15.3077C4.42211 15.0621 4.22966 14.7674 4.10396 14.4427C3.94017 13.9969 3.85256 13.5268 3.8448 13.0519C3.80896 12.2602 3.80063 12.0369 3.80063 10.0069C3.80063 7.97606 3.80063 7.76856 3.8448 6.96106C3.85018 6.48108 3.93784 6.00558 4.10396 5.55523C4.35813 4.89773 4.87896 4.38023 5.53646 4.12856C5.98196 3.96368 6.45232 3.87603 6.9273 3.86939C7.7198 3.83356 7.9423 3.82356 9.97313 3.82356C12.004 3.82356 12.2123 3.82356 13.0181 3.86939C13.4935 3.87511 13.9643 3.96279 14.4098 4.12856C14.7339 4.25379 15.0282 4.4454 15.2739 4.69109C15.5196 4.93678 15.7112 5.23112 15.8365 5.55523C16.0003 6.00102 16.0879 6.47119 16.0956 6.94606C16.1315 7.73856 16.1406 7.96106 16.1406 9.9919C16.1406 12.0219 16.1406 12.2402 16.1048 13.0369H16.0956V13.0361Z" fill="#595959"/>
</g>
</svg>
