<svg width="20" height="20" viewBox="0 0 20 20" fill="none" xmlns="http://www.w3.org/2000/svg">
<g id="bxs-watch.svg">
<path id="Vector" d="M10.8332 6.66669H9.1665V10.8334H13.3332V9.16669H10.8332V6.66669Z" fill="#2E2E2E"/>
<path id="Vector_2" d="M16.6657 10C16.6657 7.53919 15.3223 5.39169 13.3332 4.23669V2.50002C13.3332 2.27901 13.2454 2.06704 13.0891 1.91076C12.9328 1.75448 12.7208 1.66669 12.4998 1.66669H7.49982C7.2788 1.66669 7.06684 1.75448 6.91056 1.91076C6.75428 2.06704 6.66648 2.27901 6.66648 2.50002V4.23585C4.67732 5.39085 3.33398 7.53919 3.33398 10C3.33499 11.1916 3.65521 12.3611 4.26136 13.387C4.8675 14.4129 5.73742 15.2576 6.78065 15.8334H6.66648V17.5342C6.66648 17.7552 6.75428 17.9672 6.91056 18.1234C7.06684 18.2797 7.2788 18.3675 7.49982 18.3675H12.4998C12.7208 18.3675 12.9328 18.2797 13.0891 18.1234C13.2454 17.9672 13.3332 17.7552 13.3332 17.5342V15.8334H13.2173C14.261 15.258 15.1314 14.4134 15.7379 13.3875C16.3444 12.3616 16.6647 11.1918 16.6657 10ZM9.99898 14.9992C8.67367 14.9976 7.4031 14.4704 6.46604 13.5332C5.52898 12.596 5.00197 11.3253 5.00065 10C5.00197 8.67471 5.52898 7.40405 6.46604 6.46683C7.4031 5.52962 8.67367 5.0024 9.99898 5.00085C12.7573 5.00085 14.999 7.24335 14.999 10C14.9977 11.3256 14.4704 12.5965 13.533 13.5338C12.5956 14.4711 11.3246 14.9981 9.99898 14.9992Z" fill="#2E2E2E"/>
</g>
</svg>
