<svg width="24" height="24" viewBox="0 0 24 24" fill="none" xmlns="http://www.w3.org/2000/svg">
<g id="bxs-quote-alt-left.svg">
<path id="Vector" d="M6.50015 10C6.27715 10 6.06315 10.034 5.85015 10.065C5.91915 9.83303 5.99015 9.59703 6.10415 9.38503C6.21815 9.07703 6.39615 8.81003 6.57315 8.54103C6.72115 8.25003 6.98215 8.05303 7.17415 7.80403C7.37515 7.56203 7.64915 7.40103 7.86615 7.20003C8.07915 6.99003 8.35815 6.88503 8.58015 6.73703C8.81215 6.60403 9.01414 6.45703 9.23014 6.38703L9.76915 6.16503L10.2431 5.96803L9.75815 4.03003L9.16115 4.17403C8.97015 4.22203 8.73715 4.27803 8.47215 4.34503C8.20115 4.39503 7.91215 4.53203 7.59015 4.65703C7.27215 4.79903 6.90415 4.89503 6.56215 5.12303C6.21815 5.34103 5.82115 5.52303 5.47115 5.81503C5.13215 6.11603 4.72315 6.37703 4.42115 6.76003C4.09115 7.11803 3.76515 7.49403 3.51215 7.92203C3.21915 8.33003 3.02015 8.77803 2.81015 9.22103C2.62015 9.66403 2.46715 10.117 2.34215 10.557C2.10515 11.439 1.99915 12.277 1.95815 12.994C1.92415 13.712 1.94415 14.309 1.98615 14.741C2.00115 14.945 2.02915 15.143 2.04915 15.28L2.07415 15.448L2.10015 15.442C2.27801 16.2729 2.68745 17.0364 3.28111 17.6442C3.87477 18.2521 4.62839 18.6794 5.45478 18.8769C6.28118 19.0743 7.14659 19.0337 7.9509 18.7599C8.75521 18.486 9.46555 17.99 9.99975 17.3293C10.534 16.6686 10.8702 15.8701 10.9696 15.0263C11.0689 14.1825 10.9274 13.3278 10.5613 12.5611C10.1952 11.7943 9.61948 11.1469 8.9008 10.6937C8.18211 10.2405 7.3498 9.99997 6.50015 10ZM17.5001 10C17.2771 10 17.0631 10.034 16.8501 10.065C16.9191 9.83303 16.9901 9.59703 17.1041 9.38503C17.2181 9.07703 17.3961 8.81003 17.5731 8.54103C17.7211 8.25003 17.9821 8.05303 18.1741 7.80403C18.3751 7.56203 18.6491 7.40103 18.8661 7.20003C19.0791 6.99003 19.3581 6.88503 19.5801 6.73703C19.8121 6.60403 20.0141 6.45703 20.2301 6.38703L20.7691 6.16503L21.2431 5.96803L20.7581 4.03003L20.1611 4.17403C19.9701 4.22203 19.7371 4.27803 19.4721 4.34503C19.2011 4.39503 18.9121 4.53203 18.5901 4.65703C18.2731 4.80003 17.9041 4.89503 17.5621 5.12403C17.2181 5.34203 16.8211 5.52403 16.4711 5.81603C16.1321 6.11703 15.7231 6.37803 15.4211 6.76003C15.0911 7.11803 14.7651 7.49403 14.5121 7.92203C14.2191 8.33003 14.0201 8.77803 13.8101 9.22103C13.6201 9.66403 13.4671 10.117 13.3421 10.557C13.1051 11.439 12.9991 12.277 12.9581 12.994C12.9241 13.712 12.9441 14.309 12.9861 14.741C13.0011 14.945 13.0291 15.143 13.0491 15.28L13.0741 15.448L13.1001 15.442C13.278 16.2729 13.6874 17.0364 14.2811 17.6442C14.8748 18.2521 15.6284 18.6794 16.4548 18.8769C17.2812 19.0743 18.1466 19.0337 18.9509 18.7599C19.7552 18.486 20.4655 17.99 20.9998 17.3293C21.534 16.6686 21.8702 15.8701 21.9696 15.0263C22.0689 14.1825 21.9274 13.3278 21.5613 12.5611C21.1952 11.7943 20.6195 11.1469 19.9008 10.6937C19.1821 10.2405 18.3498 9.99997 17.5001 10Z" fill="#FFB568"/>
</g>
</svg>
