<svg width="107" height="107" viewBox="0 0 107 107" fill="none" xmlns="http://www.w3.org/2000/svg">
<path d="M79.5427 64.8179L81.2498 66.525V64.1108V62.4167C81.2498 61.4995 81.6142 60.6198 82.2627 59.9713C82.9113 59.3227 83.791 58.9583 84.7082 58.9583C85.6254 58.9583 86.505 59.3227 87.1536 59.9712C87.8021 60.6198 88.1665 61.4995 88.1665 62.4167V84.7083C88.1665 87.9904 86.8627 91.138 84.5419 93.4588C82.2212 95.7795 79.0736 97.0833 75.7915 97.0833H22.2915C19.0094 97.0833 15.8618 95.7795 13.5411 93.4588C11.2203 91.138 9.9165 87.9904 9.9165 84.7083V31.2083C9.9165 27.9263 11.2203 24.7786 13.5411 22.4579C15.8618 20.1371 19.0094 18.8333 22.2915 18.8333H53.4998C54.417 18.8333 55.2967 19.1977 55.9452 19.8463C56.5938 20.4948 56.9582 21.3745 56.9582 22.2917C56.9582 23.2089 56.5938 24.0885 55.9452 24.7371C55.2967 25.3856 54.417 25.75 53.4998 25.75H22.2915C20.8439 25.75 19.4555 26.3251 18.4319 27.3487C17.4082 28.3723 16.8332 29.7607 16.8332 31.2083V56.175V58.5892L18.5403 56.8821L25.1297 50.2927C27.3052 48.2261 30.1913 47.0737 33.1921 47.0737C36.193 47.0737 39.079 48.2261 41.2545 50.2926L52.3023 61.3404L53.0094 62.0475L53.7165 61.3404L56.8346 58.2224C56.8352 58.2218 56.8358 58.2211 56.8364 58.2205C58.9788 56.0961 61.8737 54.904 64.8909 54.904C67.9083 54.904 70.8034 56.0963 72.9458 58.221C72.9463 58.2215 72.9467 58.2219 72.9472 58.2224L79.5427 64.8179ZM17.1261 68.085L16.8332 68.3779V68.7921V84.7083C16.8332 86.156 17.4082 87.5443 18.4319 88.568C19.4555 89.5916 20.8439 90.1667 22.2915 90.1667H68.9257H71.3399L69.6328 88.4596L50.4619 69.2887L36.329 55.1558L36.3205 55.1473L36.3118 55.139C35.4708 54.3376 34.3538 53.8906 33.1921 53.8906C32.0305 53.8906 30.9134 54.3376 30.0725 55.139L30.0637 55.1473L30.0552 55.1558L17.1261 68.085ZM81.2498 84.7158V84.7083V76.7279V76.3157L80.9594 76.0232L68.0795 63.0543C68.0786 63.0534 68.0777 63.0524 68.0767 63.0515C67.6646 62.6315 67.1729 62.2979 66.6304 62.0699C66.0867 61.8415 65.5029 61.7238 64.9132 61.7238C64.3234 61.7238 63.7396 61.8415 63.1959 62.0699C62.6539 62.2977 62.1627 62.6309 61.7507 63.0503C61.7494 63.0516 61.7481 63.053 61.7468 63.0543L58.6331 66.1679L57.9276 66.8734L58.6316 67.5805L78.7387 87.7768L79.5509 88.5926L80.2451 87.6743C80.8894 86.8218 81.2418 85.7844 81.2498 84.7158ZM100.541 19.8334L100.544 19.8363C100.869 20.1578 101.126 20.5402 101.301 20.9617L102.224 20.5771L101.301 20.9617C101.477 21.3831 101.567 21.8351 101.567 22.2917C101.567 22.7482 101.477 23.2002 101.301 23.6217L102.224 24.0062L101.301 23.6217C101.126 24.0431 100.869 24.4256 100.544 24.7471L100.539 24.7529C100.217 25.077 99.8346 25.3343 99.4132 25.5099C98.9917 25.6855 98.5397 25.7758 98.0832 25.7758C97.6266 25.7758 97.1746 25.6855 96.7532 25.5099C96.3317 25.3343 95.9493 25.077 95.6278 24.7529L95.6276 24.7527L89.8763 18.9569L88.1665 17.2338V19.6612V44.5833C88.1665 45.5005 87.8021 46.3802 87.1536 47.0287C86.505 47.6773 85.6254 48.0417 84.7082 48.0417C83.791 48.0417 82.9113 47.6773 82.2627 47.0287C81.6142 46.3802 81.2498 45.5005 81.2498 44.5833V19.6612V17.2338L79.54 18.9569L73.7915 24.75C73.7912 24.7503 73.7908 24.7506 73.7905 24.7509C73.1386 25.4023 72.2548 25.7682 71.3332 25.7682C70.4111 25.7682 69.5268 25.402 68.8749 24.75C68.2229 24.098 67.8566 23.2137 67.8566 22.2917C67.8566 21.3696 68.2229 20.4853 68.8749 19.8334L82.2417 6.46649C82.569 6.15504 82.9542 5.91072 83.3755 5.74737L83.3848 5.74377L83.394 5.73999C84.236 5.39409 85.1804 5.39409 86.0223 5.73999L86.0315 5.74377L86.0408 5.74737C86.4621 5.91072 86.8473 6.15504 87.1746 6.46648L100.541 19.8334Z" fill="#EEA651" stroke="white" stroke-width="2"/>
</svg>
